<?xml version="1.0" encoding="UTF-8" standalone="no"?>
<!-- Created with Inkscape (http://www.inkscape.org/) -->
<svg id="svg3293" xmlns:rdf="http://www.w3.org/1999/02/22-rdf-syntax-ns#" xmlns="http://www.w3.org/2000/svg" height="227.51" width="570.9" version="1.1" xmlns:cc="http://creativecommons.org/ns#" xmlns:dc="http://purl.org/dc/elements/1.1/">
 <metadata id="metadata3298">
  <rdf:RDF>
   <cc:Work rdf:about="">
    <dc:format>image/svg+xml</dc:format>
    <dc:type rdf:resource="http://purl.org/dc/dcmitype/StillImage"/>
    <dc:title/>
   </cc:Work>
  </rdf:RDF>
 </metadata>
 <g id="layer1" transform="translate(-80.263 -126.8)">
  <circle id="circle4263" style="color:#000000" d="m 102.65641,1030.9921 c 0,6.2304 -5.050787,11.2812 -11.28125,11.2812 -6.230462,0 -11.28125,-5.0508 -11.28125,-11.2812 0,-6.2305 5.050788,-11.2813 11.28125,-11.2813 6.230463,0 11.28125,5.0508 11.28125,11.2813 z" cx="91.375" cy="1031" transform="matrix(10.084 0 0 10.084 -554.43 -10156)" r="11.281" fill="#ececec"/>
  <path id="path4241" style="block-progression:tb;text-indent:0;color:#000000;text-transform:none" d="m141.81 171.42c-33.748 0-61.545 27.796-61.545 61.545v10.832c0 33.749 27.797 61.545 61.545 61.545h108.85c26.318 0 48.946-16.944 57.665-40.393h-57.075c-0.20167 0.005-0.38721 0.10084-0.59089 0.10084h-108.85c-12.101 0-21.211-9.1095-21.211-21.211v-10.832c0-12.101 9.11-21.211 21.211-21.211h108.85 0.41342 57.252c-8.7194-23.448-31.347-40.374-57.665-40.374h-108.85z" fill="#4d4d4d"/>
  <path id="path4247" style="block-progression:tb;text-indent:0;color:#000000;text-transform:none" d="m589.62 171.42c33.748 0 61.545 27.796 61.545 61.545v10.832c0 33.749-27.797 61.545-61.545 61.545h-108.85c-26.318 0-48.946-16.944-57.665-40.393h57.075c0.20167 0.005 0.3872 0.10084 0.59089 0.10084h108.85c12.101 0 21.211-9.1095 21.211-21.211v-10.832c0-12.101-9.1099-21.211-21.211-21.211h-108.85-0.41342-57.252c8.7195-23.448 31.347-40.374 57.665-40.374h108.85z" fill="#4d4d4d"/>
  <g id="g4257" fill-rule="evenodd" transform="matrix(18.082 0 0 18.082 -1239.8 -18372)" stroke="#ff8080" stroke-linecap="round" stroke-width="1.3941" fill="#ff8080">
   <path id="path4253" d="m86.391 1031.6 4.8349-4.8348"/>
   <path id="path4255" d="m91.226 1031.6-4.8349-4.8348"/>
  </g>
 </g>
</svg>
